<svg xmlns="http://www.w3.org/2000/svg" width="836" height="992" viewBox="0 0 836 992" data-screen="44 98 748 720" role="img">
  <title>Z Flip5 外屏：真机像素与参考照片校准框</title>
  <desc>屏幕映射矩形 44,98,748,720。像素尺寸与49px圆角来自设备；底部斜向弧线、镜头、铰链及机身外观按用户照片描绘，并非工业测量。外观开孔不能替代系统缺口与完整窗口安全边距。</desc>
  <defs>
    <linearGradient id="hinge" x1="0" y1="0" x2="0" y2="1">
      <stop stop-color="#242b32"/><stop offset=".12" stop-color="#aab3ba"/><stop offset=".28" stop-color="#e2e6e8"/>
      <stop offset=".45" stop-color="#67747d"/><stop offset=".72" stop-color="#c0c7cb"/><stop offset="1" stop-color="#222c34"/>
    </linearGradient>
    <linearGradient id="rim" x1="0" y1="0" x2="1" y2="0">
      <stop stop-color="#a3afb5"/><stop offset=".05" stop-color="#303b43"/><stop offset=".45" stop-color="#101820"/>
      <stop offset=".9" stop-color="#3b464e"/><stop offset=".97" stop-color="#adb7bd"/><stop offset="1" stop-color="#202b32"/>
    </linearGradient>
    <linearGradient id="glass" x1="0" y1="0" x2="1" y2="1">
      <stop stop-color="#080d11"/><stop offset=".55" stop-color="#101416"/><stop offset="1" stop-color="#181c1e"/>
    </linearGradient>
    <radialGradient id="lens"><stop stop-color="#14243b"/><stop offset=".23" stop-color="#071322"/><stop offset=".52" stop-color="#05080d"/><stop offset=".76" stop-color="#101b2b"/><stop offset="1" stop-color="#010305"/></radialGradient>
    <linearGradient id="camera-ring" x1="0" y1="0" x2=".7" y2="1"><stop stop-color="#98a2a8"/><stop offset=".25" stop-color="#35434e"/><stop offset=".57" stop-color="#080c12"/><stop offset=".82" stop-color="#2d3942"/><stop offset="1" stop-color="#7a858c"/></linearGradient>
    <radialGradient id="flash"><stop stop-color="#f7f5d9"/><stop offset=".65" stop-color="#e4e6d0"/><stop offset="1" stop-color="#929d90"/></radialGradient>
    <mask id="opening" maskUnits="userSpaceOnUse" x="0" y="0" width="836" height="992">
      <rect width="836" height="992" fill="white"/>
      <path transform="translate(44 98)" d="M49 0 H699 Q748 0 748 49 V610 Q748 654 704 654 H424 C399 654 389 668 379 683 L365 701 Q352 720 326 720 H49 Q0 720 0 671 V49 Q0 0 49 0 Z" fill="black"/>
    </mask>
  </defs>
  <g mask="url(#opening)">
    <rect x="16" y="5" width="804" height="51" rx="21" fill="url(#hinge)" stroke="#343c43" stroke-width="3"/>
    <path d="M30 36 H806 Q832 36 832 64 V901 Q832 988 745 988 H91 Q4 988 4 901 V64 Q4 36 30 36Z" fill="url(#rim)"/>
    <path d="M31 45 H805 Q824 45 824 66 V900 Q824 980 744 980 H92 Q12 980 12 900 V66 Q12 45 31 45Z" fill="url(#glass)"/>
    <path d="M28 55 H808" stroke="#4d5960" stroke-width="2" opacity=".65"/>
    <path d="M17 85 V898 Q17 972 92 975" fill="none" stroke="#526168" stroke-width="2" opacity=".4"/>
    <path d="M820 89 V896 Q820 971 745 975" fill="none" stroke="#111a21" stroke-width="3"/>
  </g>
  <g>
    <circle cx="558" cy="850" r="62" fill="#020406"/><circle cx="710" cy="850" r="62" fill="#020406"/>
    <circle cx="558" cy="850" r="58" fill="url(#camera-ring)"/><circle cx="710" cy="850" r="58" fill="url(#camera-ring)"/>
    <circle cx="558" cy="850" r="50" fill="#020508"/><circle cx="710" cy="850" r="50" fill="#020508"/>
    <circle cx="558" cy="850" r="42" fill="url(#lens)"/><circle cx="710" cy="850" r="42" fill="url(#lens)"/>
    <g fill="#5b89b4" opacity=".35"><ellipse cx="548" cy="837" rx="10" ry="6"/><ellipse cx="700" cy="837" rx="10" ry="6"/></g>
    <g fill="#8aabc5" opacity=".12"><circle cx="566" cy="860" r="8"/><circle cx="718" cy="860" r="8"/></g>
    <circle cx="435" cy="850" r="21" fill="#444e49"/><circle cx="435" cy="850" r="18" fill="url(#flash)"/>
  </g>
</svg>
